<svg width="46" height="48" viewBox="0 0 46 48" fill="none" xmlns="http://www.w3.org/2000/svg">
<path d="M23 32C26.1756 32 28.75 29.3137 28.75 26C28.75 22.6863 26.1756 20 23 20C19.8244 20 17.25 22.6863 17.25 26C17.25 29.3137 19.8244 32 23 32Z" stroke="#FFFDF3" stroke-width="1.5"/>
<path d="M18.7407 42H27.2592C33.2413 42 36.2323 42 38.3809 40.5292C39.3108 39.8924 40.1095 39.0742 40.7311 38.1214C42.1667 35.9202 42.1667 32.8558 42.1667 26.7272C42.1667 20.5988 42.1667 17.5344 40.7311 15.3332C40.1095 14.3803 39.3108 13.5621 38.3809 12.9254C37.0001 11.9803 35.2718 11.6425 32.6255 11.5217C31.3626 11.5217 30.2755 10.5414 30.0278 9.27272C29.6562 7.36978 28.0253 6 26.1313 6H19.8687C17.9746 6 16.3437 7.36978 15.9722 9.27272C15.7246 10.5414 14.6373 11.5217 13.3745 11.5217C10.7282 11.6425 8.9998 11.9803 7.61921 12.9254C6.68907 13.5621 5.89045 14.3803 5.26895 15.3332C3.83333 17.5344 3.83333 20.5988 3.83333 26.7272C3.83333 32.8558 3.83333 35.9202 5.26895 38.1214C5.89045 39.0742 6.68907 39.8924 7.61921 40.5292C9.76779 42 12.7588 42 18.7407 42Z" stroke="#FFFDF3" stroke-width="1.5"/>
<path d="M36.4167 20H34.5" stroke="#FFFDF3" stroke-width="1.5" stroke-linecap="round"/>
</svg>
