<svg width="47" height="49" viewBox="0 0 47 49" fill="none" xmlns="http://www.w3.org/2000/svg">
<path d="M23.5004 32.6667C12.2204 32.6667 10.2222 20.9465 9.86818 11.6507C9.76972 9.065 9.72048 7.77211 10.6521 6.5759C11.5837 5.37971 12.6987 5.18357 14.9287 4.7913C17.13 4.4041 20.0075 4.08337 23.5004 4.08337C26.9931 4.08337 29.8707 4.4041 32.0718 4.7913C34.302 5.18357 35.4169 5.37971 36.3484 6.5759C37.2802 7.77211 37.2309 9.065 37.1324 11.6507C36.7785 20.9465 34.7802 32.6667 23.5004 32.6667Z" stroke="#FFFDF3" stroke-width="1.5"/>
<path d="M37.2083 10.2084L39.066 10.854C41.005 11.5278 41.9743 11.8647 42.5287 12.6667C43.0833 13.4688 43.0833 14.5341 43.0831 16.6648V16.8129C43.0831 18.5702 43.0831 19.4489 42.6774 20.1678C42.2716 20.8867 41.5349 21.3134 40.0614 22.1668L34.2708 25.5209" stroke="#FFFDF3" stroke-width="1.5"/>
<path d="M9.79156 10.2084L7.93384 10.854C5.99497 11.5278 5.02554 11.8647 4.47108 12.6667C3.91659 13.4688 3.91661 14.5341 3.91667 16.6648V16.8129C3.91673 18.5702 3.91675 19.4489 4.3225 20.1678C4.72823 20.8867 5.46499 21.3134 6.93848 22.1668L12.7291 25.5209" stroke="#FFFDF3" stroke-width="1.5"/>
<path d="M23.5 34.7084V38.7917" stroke="#FFFDF3" stroke-width="1.5" stroke-linecap="round"/>
<path d="M30.3542 44.9167H16.6458L17.3101 41.4538C17.4932 40.4995 18.2969 39.8125 19.2304 39.8125H27.7696C28.7031 39.8125 29.5068 40.4995 29.6899 41.4538L30.3542 44.9167Z" stroke="#FFFDF3" stroke-width="1.5" stroke-linecap="round" stroke-linejoin="round"/>
<path d="M35.25 44.9166H11.75" stroke="#FFFDF3" stroke-width="1.5" stroke-linecap="round"/>
</svg>
